<svg height="512pt" viewBox="0 -42 512 512" width="512pt" xmlns="http://www.w3.org/2000/svg" style="fill:#ffffff"><path d="m108.308594 246.15625h49.230468c8.15625 0 14.769532-6.613281 14.769532-14.769531s-6.613282-14.769531-14.769532-14.769531h-24.617187v-19.691407c0-8.160156-6.613281-14.769531-14.769531-14.769531s-14.769532 6.609375-14.769532 14.769531v19.972657c-22.121093 2.457031-39.382812 21.257812-39.382812 44.027343v14.765625c0 8.160156 6.613281 14.769532 14.769531 14.769532h64c0 8.144531-6.625 14.769531-14.769531 14.769531h-49.230469c-8.15625 0-14.769531 6.613281-14.769531 14.769531s6.613281 14.769531 14.769531 14.769531h24.613281v19.691407c0 8.15625 6.613282 14.769531 14.769532 14.769531s14.769531-6.613281 14.769531-14.769531v-19.972657c22.125-2.457031 39.386719-21.257812 39.386719-44.027343v-14.769532c0-8.15625-6.613282-14.765625-14.769532-14.765625h-64c0-8.144531 6.625-14.769531 14.769532-14.769531zm0 0"/><path d="m497.230469 123.078125h-71.644531l47.4375-47.441406c17.277343-17.273438 17.277343-45.382813 0-62.660157-8.367188-8.367187-19.492188-12.976562-31.328126-12.976562-11.835937 0-22.960937 4.609375-31.328124 12.976562l-110.101563 110.101563h-285.496094c-8.15625 0-14.769531 6.613281-14.769531 14.769531v275.691406c0 8.15625 6.613281 14.769532 14.769531 14.769532h482.460938c8.15625 0 14.769531-6.613282 14.769531-14.769532v-275.691406c0-8.15625-6.613281-14.769531-14.769531-14.769531zm-206.238281 92.820313-31.332032 10.445312 10.441406-31.332031 126.339844-126.335938 20.886719 20.886719zm150.703124-186.359376c3.945313 0 7.652344 1.539063 10.441407 4.328126 5.695312 5.691406 5.695312 15.191406 0 20.886718l-13.921875 13.925782-20.886719-20.886719 13.925781-13.925781c2.789063-2.789063 6.496094-4.328126 10.441406-4.328126zm40.765626 369.230469h-452.921876v-246.152343h241.1875l-23.976562 23.976562c-1.621094 1.621094-2.84375 3.597656-3.566406 5.773438l-20.886719 62.660156c-1.613281 4.835937-.921875 10.710937 2.136719 14.835937 2.769531 3.734375 7.222656 5.984375 11.875 5.984375h196.921875c8.15625 0 14.769531-6.613281 14.769531-14.769531s-6.613281-14.769531-14.769531-14.769531h-120.875l83.691406-83.691406h86.414063zm0 0"/><path d="m433.230469 300.308594h-118.152344c-8.15625 0-14.769531 6.613281-14.769531 14.769531s6.613281 14.769531 14.769531 14.769531h118.152344c8.15625 0 14.769531-6.613281 14.769531-14.769531s-6.613281-14.769531-14.769531-14.769531zm0 0"/></svg>