<?xml version="1.0" encoding="utf-8"?>
<!-- Generator: Adobe Illustrator 23.0.1, SVG Export Plug-In . SVG Version: 6.00 Build 0)  -->
<svg version="1.1" id="Capa_1" xmlns="http://www.w3.org/2000/svg" xmlns:xlink="http://www.w3.org/1999/xlink" x="0px" y="0px"
	 viewBox="0 0 382.68 382.68" style="enable-background:new 0 0 382.68 382.68;" xml:space="preserve">
<style type="text/css">
	.st0{fill:none;stroke:#FFFFFF;stroke-width:12;stroke-linecap:round;stroke-linejoin:round;stroke-miterlimit:10;}
</style>
<path class="st0" d="M186.83,48.75h86.51c2.66,0.11,15.4,0.92,25.58,11.5c9.84,10.24,10.41,22.49,10.47,25.26
	c0,77.38,0,154.76,0,232.15c0.02,1.88-0.2,6.24-3.08,10.45c-5.15,7.52-14.26,7.91-15.3,7.93c-60.2,0-120.4,0-180.6,0
	c-0.86,0.1-7.21,0.74-12.24-4.09c-5.29-5.08-4.61-11.9-4.52-12.67c0-64.95,0-129.89,0-194.84c15.52-15.52,31.04-31.04,46.55-46.55
	c5.69-5.69,11.38-11.38,17.08-17.08c2.29-2.34,5.86-5.42,10.85-7.9C175.83,49.1,182.96,48.68,186.83,48.75z"/>
<path class="st0" d="M92.85,125.64l-16.2-16.23c-0.89-1.29-2.6-4.15-2.98-8.21c-0.4-4.36,0.97-7.7,1.65-9.1
	c10.38-9.76,20.77-19.53,31.15-29.29c1.31-0.82,4.87-2.77,9.72-2.54c3.93,0.19,6.79,1.71,8.12,2.54
	c5.3,5.03,10.59,10.06,15.89,15.09"/>
<path class="st0" d="M273.82,109.51h-80.84c-7.65,0-13.86-6.2-13.86-13.86V83.31c0-7.65,6.2-13.86,13.86-13.86h80.84
	c7.65,0,13.86,6.2,13.86,13.86v12.35C287.68,103.31,281.48,109.51,273.82,109.51z"/>
<path class="st0" d="M259.1,155.41h16c1.43,0.44,3.86,1.4,6.06,3.59c4.3,4.29,4.34,9.9,4.32,11.11c0,29.69,0,59.38,0,89.07
	c0.18,0.73,1.26,5.46-1.8,9.89c-3.19,4.63-8.31,5.18-9.01,5.24c-47.27,0-94.55,0-141.82,0c-0.78,0.09-6.86,0.72-11.62-3.92
	c-4.9-4.79-4.25-11.13-4.16-11.86c0-30.48,0-60.97,0-91.45c0.17-1.28,0.73-4.21,3-7.04c2.47-3.08,5.51-4.24,6.73-4.64
	c4.47,0,8.94,0,13.4,0"/>
<path class="st0" d="M159.42,153.85c2.78-10.28,40.21-19.11,66.32-4.87c26.32,14.36,42.98,53.17,29.21,70.89
	c-9.97,12.83-35.33,13.87-51.42,4.56c-10.44-6.04-18.71-17.43-22.21-28.6c-3.47-11.08-1.93-15.39-6.39-22.82
	c-9.13-15.21-16.22-12.84-15.99-17.4C158.95,155.37,158.94,155.62,159.42,153.85z"/>
<path class="st0" d="M250.99,222c-4.96-9.51-19.5-33.06-41.07-48.07c-20.27-14.1-40.01-18.5-50.5-20.08"/>
<polyline class="st0" points="205.2,156.89 206.41,171.58 191.34,171.58 "/>
<path class="st0" d="M224.37,186.07v-19.44V186.07z"/>
<line class="st0" x1="241.25" y1="206.21" x2="218.44" y2="208.01"/>
<line class="st0" x1="224.37" y1="186.07" x2="199.88" y2="187.93"/>
</svg>
